<svg width="12" height="12" viewBox="0 0 12 12" fill="none" xmlns="http://www.w3.org/2000/svg">
<path d="M10 0H2C1.46957 0 0.960859 0.210714 0.585786 0.585786C0.210714 0.960859 0 1.46957 0 2L0 7C0 7.53043 0.210714 8.03914 0.585786 8.41421C0.960859 8.78929 1.46957 9 2 9H3.732L5.584 11.777C5.62966 11.8455 5.69152 11.9016 5.76409 11.9405C5.83666 11.9793 5.91769 11.9996 6 11.9996C6.08231 11.9996 6.16334 11.9793 6.23591 11.9405C6.30848 11.9016 6.37034 11.8455 6.416 11.777L8.268 9H10C10.5304 9 11.0391 8.78929 11.4142 8.41421C11.7893 8.03914 12 7.53043 12 7V2C12 1.46957 11.7893 0.960859 11.4142 0.585786C11.0391 0.210714 10.5304 0 10 0Z" fill="#545469"/>
</svg>
