<svg width="16" height="16" viewBox="0 0 16 16" fill="none" xmlns="http://www.w3.org/2000/svg">
<path d="M3 10V13.5C3 13.6326 2.94732 13.7598 2.85355 13.8536C2.75979 13.9473 2.63261 14 2.5 14C2.36739 14 2.24021 13.9473 2.14645 13.8536C2.05268 13.7598 2 13.6326 2 13.5V13C2 12.7348 1.89464 12.4804 1.70711 12.2929C1.51957 12.1054 1.26522 12 1 12C0.734784 12 0.48043 12.1054 0.292893 12.2929C0.105357 12.4804 0 12.7348 0 13L0 13.5C0 14.163 0.263392 14.7989 0.732233 15.2678C1.20107 15.7366 1.83696 16 2.5 16C3.16304 16 3.79893 15.7366 4.26777 15.2678C4.73661 14.7989 5 14.163 5 13.5V10H3Z" fill="#545469"/>
<path d="M13 10V13.5C13 13.6326 13.0527 13.7598 13.1464 13.8536C13.2402 13.9473 13.3674 14 13.5 14C13.6326 14 13.7598 13.9473 13.8536 13.8536C13.9473 13.7598 14 13.6326 14 13.5V13C14 12.7348 14.1054 12.4804 14.2929 12.2929C14.4804 12.1054 14.7348 12 15 12C15.2652 12 15.5196 12.1054 15.7071 12.2929C15.8946 12.4804 16 12.7348 16 13V13.5C16 14.163 15.7366 14.7989 15.2678 15.2678C14.7989 15.7366 14.163 16 13.5 16C12.837 16 12.2011 15.7366 11.7322 15.2678C11.2634 14.7989 11 14.163 11 13.5V10H13Z" fill="#545469"/>
<path d="M7 10V13C7 13.2652 7.10536 13.5196 7.29289 13.7071C7.48043 13.8946 7.73478 14 8 14C8.26522 14 8.51957 13.8946 8.70711 13.7071C8.89464 13.5196 9 13.2652 9 13V10H7Z" fill="#545469"/>
<path d="M8 0C5.879 0.00238211 3.84555 0.846002 2.34578 2.34578C0.846002 3.84555 0.00238211 5.879 0 8C0 8.26522 0.105357 8.51957 0.292893 8.70711C0.48043 8.89464 0.734784 9 1 9H15C15.2652 9 15.5196 8.89464 15.7071 8.70711C15.8946 8.51957 16 8.26522 16 8C15.9976 5.879 15.154 3.84555 13.6542 2.34578C12.1544 0.846002 10.121 0.00238211 8 0ZM5 6C4.80222 6 4.60888 5.94135 4.44443 5.83147C4.27998 5.72159 4.15181 5.56541 4.07612 5.38268C4.00043 5.19996 3.98063 4.99889 4.01921 4.80491C4.0578 4.61093 4.15304 4.43275 4.29289 4.29289C4.43275 4.15304 4.61093 4.0578 4.80491 4.01921C4.99889 3.98063 5.19996 4.00043 5.38268 4.07612C5.56541 4.15181 5.72159 4.27998 5.83147 4.44443C5.94135 4.60888 6 4.80222 6 5C6 5.26522 5.89464 5.51957 5.70711 5.70711C5.51957 5.89464 5.26522 6 5 6ZM11 6C10.8022 6 10.6089 5.94135 10.4444 5.83147C10.28 5.72159 10.1518 5.56541 10.0761 5.38268C10.0004 5.19996 9.98063 4.99889 10.0192 4.80491C10.0578 4.61093 10.153 4.43275 10.2929 4.29289C10.4327 4.15304 10.6109 4.0578 10.8049 4.01921C10.9989 3.98063 11.2 4.00043 11.3827 4.07612C11.5654 4.15181 11.7216 4.27998 11.8315 4.44443C11.9414 4.60888 12 4.80222 12 5C12 5.26522 11.8946 5.51957 11.7071 5.70711C11.5196 5.89464 11.2652 6 11 6Z" fill="#545469"/>
</svg>
