<svg width="12" height="12" viewBox="0 0 12 12" fill="none" xmlns="http://www.w3.org/2000/svg">
<path d="M11.526 5.80251L8.424 4.57551L7.197 1.47351C7.084 1.18751 6.807 0.999512 6.5 0.999512C6.193 0.999512 5.916 1.18751 5.803 1.47351L4.576 4.57551L1.474 5.80251C1.188 5.91551 1 6.19251 1 6.49951C1 6.80651 1.188 7.08351 1.474 7.19651L4.576 8.42351L5.803 11.5255C5.916 11.8115 6.193 11.9995 6.5 11.9995C6.807 11.9995 7.084 11.8115 7.197 11.5255L8.424 8.42351L11.526 7.19651C11.812 7.08351 12 6.80651 12 6.49951C12 6.19251 11.812 5.91551 11.526 5.80251Z" fill="#545469"/>
<path d="M3.492 1.4915L2.546 1.1765L2.23 0.2295C2.128 -0.0765 1.621 -0.0765 1.519 0.2295L1.203 1.1765L0.257 1.4915C0.104 1.5425 0 1.6855 0 1.8475C0 2.0095 0.104 2.1525 0.257 2.2035L1.203 2.5185L1.519 3.4655C1.57 3.6185 1.713 3.7215 1.874 3.7215C2.035 3.7215 2.179 3.6175 2.229 3.4655L2.545 2.5185L3.491 2.2035C3.644 2.1525 3.748 2.0095 3.748 1.8475C3.748 1.6855 3.644 1.5425 3.491 1.4915H3.492Z" fill="#545469"/>
</svg>
