<svg width="23" height="23" viewBox="0 0 23 23" fill="none" xmlns="http://www.w3.org/2000/svg">
<path d="M22.212 11.3133C22.2113 10.9279 21.9892 10.5744 21.6399 10.4103L8.20489 4.04638C7.84356 3.87456 7.41364 3.93537 7.11453 4.20053C6.81472 4.4664 6.70229 4.8843 6.82886 5.26543L8.45096 10.1289L14.076 11.0672C14.3546 11.1139 14.3546 11.5141 14.076 11.5608L8.44955 12.4991L6.82745 17.3626C6.70865 17.7232 6.80341 18.1192 7.06998 18.3858C7.08483 18.4006 7.09968 18.4141 7.11453 18.4275C7.41434 18.6934 7.84356 18.7549 8.2063 18.5831L21.6413 12.2177C21.9892 12.0522 22.212 11.6994 22.212 11.3133Z" fill="#545469"/>
</svg>
