<svg width="16" height="16" viewBox="0 0 16 16" fill="none" xmlns="http://www.w3.org/2000/svg">
<path d="M14.9952 0.943755C14.9571 0.559478 14.7003 0.231353 14.336 0.10147C13.9757 -0.0269478 13.5655 0.0619195 13.2931 0.336334L10.586 3.04336H5.41416L2.70713 0.336334C2.43369 0.0619196 2.02451 -0.0269477 1.66416 0.10147C1.2999 0.231353 1.04307 0.559478 1.00498 0.943755L0.0049807 10.9438C-0.0213865 11.2065 0.0577151 11.4691 0.223731 11.6737C0.357398 11.8379 3.28556 15.3805 7.0001 15.9563V13.4574L4.58604 11.0434H11.4142L9.0001 13.4574V15.9563C12.7146 15.3805 15.6428 11.8379 15.7765 11.6737C15.9425 11.4691 16.0216 11.2065 15.9952 10.9438L14.9952 0.943755ZM5.0001 9.04336C4.44779 9.04336 4.0001 8.59561 4.0001 8.04337C4.0001 7.49106 4.44779 7.04337 5.0001 7.04337C5.5524 7.04337 6.0001 7.49106 6.0001 8.04337C6.0001 8.59561 5.5524 9.04336 5.0001 9.04336ZM11.0001 9.04336C10.4478 9.04336 10.0001 8.59561 10.0001 8.04337C10.0001 7.49106 10.4478 7.04337 11.0001 7.04337C11.5524 7.04337 12.0001 7.49106 12.0001 8.04337C12.0001 8.59561 11.5524 9.04336 11.0001 9.04336Z" fill="#545469"/>
</svg>
