<svg width="12" height="12" viewBox="0 0 12 12" fill="none" xmlns="http://www.w3.org/2000/svg">
<path d="M6 -0.000244141C2.691 -0.000244141 0 2.36176 0 5.26676C0 8.17176 2.691 10.5328 6 10.5328C6.34684 10.5329 6.69319 10.5065 7.036 10.4538L9.761 11.9388C9.8344 11.9785 9.91652 11.9995 10 11.9998C10.1326 11.9998 10.2598 11.9471 10.3536 11.8533C10.4473 11.7595 10.5 11.6324 10.5 11.4998V8.71076C10.9646 8.26381 11.3363 7.72947 11.5937 7.13844C11.8511 6.5474 11.9892 5.91133 12 5.26676C12 2.36176 9.309 -0.000244141 6 -0.000244141Z" fill="#755FAC"/>
</svg>
