<svg width="16" height="16" viewBox="0 0 16 16" fill="none" xmlns="http://www.w3.org/2000/svg">
<path d="M15.8999 8.31328C15.8992 7.92788 15.6771 7.57438 15.3278 7.41028L1.89279 1.04636C1.53146 0.874541 1.10154 0.935351 0.802426 1.20051C0.502616 1.46638 0.390186 1.88428 0.516756 2.26541L2.13886 7.12888L7.7639 8.06718C8.0425 8.11388 8.0425 8.51408 7.7639 8.56078L2.13745 9.49908L0.515346 14.3626C0.396546 14.7232 0.491306 15.1192 0.757876 15.3858C0.772726 15.4006 0.787576 15.4141 0.802426 15.4275C1.10224 15.6934 1.53146 15.7549 1.8942 15.5831L15.3292 9.21768C15.6771 9.05218 15.8999 8.69938 15.8999 8.31328Z" fill="#755FAC"/>
</svg>
