<svg width="12" height="12" viewBox="0 0 12 12" fill="none" xmlns="http://www.w3.org/2000/svg">
<path d="M11.625 4.11821H7.575L6.35775 0.23471C6.32748 0.164979 6.27749 0.105614 6.21394 0.0639149C6.15038 0.0222156 6.07602 0 6 0C5.92398 0 5.84962 0.0222156 5.78606 0.0639149C5.72251 0.105614 5.67252 0.164979 5.64225 0.23471L4.425 4.11821H0.375C0.296294 4.11821 0.219583 4.14297 0.155734 4.18899C0.0918841 4.23501 0.0441328 4.29996 0.0192438 4.37463C-0.00564524 4.44929 -0.00641013 4.5299 0.0170574 4.60502C0.040525 4.68015 0.0870353 4.74599 0.15 4.79321L3.375 7.21571L2.10525 11.121C2.08111 11.1962 2.08134 11.2771 2.10591 11.3522C2.13048 11.4273 2.17814 11.4927 2.24208 11.5391C2.30602 11.5855 2.38298 11.6105 2.46197 11.6105C2.54097 11.6106 2.61798 11.5857 2.682 11.5395L6 9.12896L9.318 11.5395C9.38202 11.5857 9.45903 11.6106 9.53802 11.6105C9.61702 11.6105 9.69398 11.5855 9.75792 11.5391C9.82186 11.4927 9.86952 11.4273 9.89409 11.3522C9.91866 11.2771 9.91889 11.1962 9.89475 11.121L8.625 7.21571L11.85 4.79321C11.913 4.74599 11.9595 4.68015 11.9829 4.60502C12.0064 4.5299 12.0056 4.44929 11.9808 4.37463C11.9559 4.29996 11.9081 4.23501 11.8443 4.18899C11.7804 4.14297 11.7037 4.11821 11.625 4.11821Z" fill="#212121"/>
</svg>
